<svg width="63" height="63" viewBox="0 0 63 63" fill="none" xmlns="http://www.w3.org/2000/svg">
<path d="M55.125 43.3125C55.125 44.31 54.5738 45.1763 53.7338 45.6225L32.9963 57.2775C32.5763 57.5925 32.0513 57.75 31.5 57.75C30.9488 57.75 30.4238 57.5925 30.0038 57.2775L9.26626 45.6225C8.84542 45.4013 8.49323 45.0691 8.24795 44.6618C8.00267 44.2546 7.87369 43.7879 7.87501 43.3125V19.6875C7.87501 18.69 8.42626 17.8238 9.26626 17.3775L30.0038 5.7225C30.4238 5.4075 30.9488 5.25 31.5 5.25C32.0513 5.25 32.5763 5.4075 32.9963 5.7225L53.7338 17.3775C54.5738 17.8238 55.125 18.69 55.125 19.6875V43.3125ZM13.125 23.625V39.375H16.4063V34.125H18.375C19.7674 34.125 21.1028 33.5719 22.0873 32.5873C23.0719 31.6027 23.625 30.2674 23.625 28.875C23.625 27.4826 23.0719 26.1473 22.0873 25.1627C21.1028 24.1781 19.7674 23.625 18.375 23.625H13.125ZM16.4063 31.5V26.25H17.7188C18.415 26.25 19.0826 26.5266 19.5749 27.0188C20.0672 27.5111 20.3438 28.1788 20.3438 28.875C20.3438 29.5712 20.0672 30.2389 19.5749 30.7312C19.0826 31.2234 18.415 31.5 17.7188 31.5H16.4063ZM25.5938 23.625V39.375H28.875V34.125H30.8438L32.5763 39.375H36.0413L33.9675 33.1013C35.2538 32.1563 36.0938 30.6075 36.0938 28.875C36.0938 27.4826 35.5406 26.1473 34.5561 25.1627C33.5715 24.1781 32.2361 23.625 30.8438 23.625H25.5938ZM28.875 31.5V26.25H30.1875C30.8837 26.25 31.5514 26.5266 32.0437 27.0188C32.5359 27.5111 32.8125 28.1788 32.8125 28.875C32.8125 29.5712 32.5359 30.2389 32.0437 30.7312C31.5514 31.2234 30.8837 31.5 30.1875 31.5H28.875ZM44.625 23.625C41.0025 23.625 38.0625 27.1425 38.0625 31.5C38.0625 35.8575 41.0025 39.375 44.625 39.375C48.2475 39.375 51.1875 35.8575 51.1875 31.5C51.1875 27.1425 48.2475 23.625 44.625 23.625ZM44.625 26.9063C46.62 26.9063 48.2475 28.9538 48.2475 31.5C48.2475 34.0463 46.62 36.0938 44.625 36.0938C42.63 36.0938 41.0288 34.0463 41.0288 31.5C41.0288 28.9538 42.63 26.9063 44.625 26.9063Z" fill="white"/>
</svg>
