<svg width="9" height="8" viewBox="0 0 9 8" fill="none" xmlns="http://www.w3.org/2000/svg">
<path d="M0.5625 3.42898H7.23375L5.19187 0.937774C5.0964 0.82109 5.05046 0.670657 5.06418 0.51957C5.07789 0.368483 5.15013 0.229117 5.265 0.132132C5.37987 0.0351475 5.52797 -0.0115122 5.67671 0.00241778C5.82545 0.0163478 5.96265 0.0897266 6.05813 0.206411L8.87062 3.63468C8.88955 3.66194 8.90647 3.69059 8.92125 3.72038C8.92125 3.74895 8.92125 3.76609 8.96062 3.79466C8.98612 3.86017 8.99947 3.92991 9 4.00036C8.99947 4.0708 8.98612 4.14054 8.96062 4.20605C8.96062 4.23462 8.96063 4.25176 8.92125 4.28033C8.90647 4.31012 8.88955 4.33877 8.87062 4.36604L6.05813 7.7943C6.00524 7.8588 5.93901 7.91067 5.86415 7.94622C5.78929 7.98177 5.70764 8.00014 5.625 8C5.49357 8.00026 5.3662 7.95376 5.265 7.86858C5.20804 7.82062 5.16096 7.76171 5.12645 7.69523C5.09194 7.62875 5.07068 7.55601 5.06389 7.48117C5.05709 7.40634 5.0649 7.33087 5.08686 7.25911C5.10883 7.18734 5.14451 7.12068 5.19187 7.06294L7.23375 4.57173H0.5625C0.413316 4.57173 0.270241 4.51154 0.164752 4.40438C0.0592632 4.29723 0 4.1519 0 4.00036C0 3.84882 0.0592632 3.70349 0.164752 3.59633C0.270241 3.48918 0.413316 3.42898 0.5625 3.42898Z" fill="white"/>
</svg>
