<svg width="9" height="8" viewBox="0 0 9 8" fill="none" xmlns="http://www.w3.org/2000/svg">
<path d="M0.709943 3.92898L1.37955 3.11202L3.42116 0.621138C3.42119 0.621104 3.42122 0.62107 3.42124 0.621036C3.43311 0.606475 3.43982 0.586222 3.43787 0.564767C3.43592 0.543321 3.4258 0.525454 3.41244 0.514177C3.39938 0.503143 3.38409 0.498912 3.36992 0.500239C3.35566 0.501574 3.34054 0.508754 3.32884 0.523048L3.32844 0.523541L0.550248 3.90998C0.545407 3.92465 0.539723 3.9398 0.533046 3.95531C0.524217 3.97581 0.5145 3.99497 0.504192 4.01284L0.526645 4.05809C0.528568 4.06197 0.530617 4.06576 0.532786 4.06945L3.32844 7.47717L3.32851 7.47727C3.33496 7.48513 3.34254 7.49086 3.35035 7.49457C3.35813 7.49826 3.36624 7.50001 3.37417 7.5L3.37599 7.5L0.709943 3.92898ZM0.709943 3.92898H1.76625M0.709943 3.92898H1.76625M1.76625 3.92898H8.4375C8.45153 3.92898 8.46659 3.93457 8.47894 3.94711C8.49154 3.95991 8.5 3.97892 8.5 4.00036C8.5 4.02179 8.49154 4.0408 8.47894 4.05361L8.83525 4.40438L8.47894 4.05361C8.46659 4.06615 8.45153 4.07173 8.4375 4.07173H1.76625H0.709943L1.37955 4.88869L3.42142 7.3799L3.42156 7.38006C3.42734 7.38712 3.43205 7.39569 3.43502 7.40542C3.438 7.41516 3.43911 7.42558 3.43816 7.43597L3.93611 7.48117M1.76625 3.92898L3.93611 7.48117M3.93611 7.48117L3.43816 7.43598C3.43722 7.44637 3.43428 7.45619 3.42978 7.46486C3.42531 7.47347 3.4195 7.48058 3.41302 7.48605L3.93611 7.48117ZM0.539375 4.20605V4.19753C0.540269 4.21325 0.539375 4.21805 0.539375 4.20605Z" fill="#050F94" stroke="#294199"/>
</svg>
